{"title":"Cosmos A Space Time Odyssey S01E05 HDTV x264 AAC E-Subs [GWC].mp","uid":9911037,"size":161070550,"categoryP":"video","categoryS":"tv_shows","magnet":"?xt=urn:btih:d18ff06b0bc5771c7e3f53f78a7c37b5cf773db7&amp;dn=Cosmos+A+Space+Time+Odyssey+S01E05+HDTV+x264+AAC+E-Subs+%5BGWC%5D.mp&amp;tr=udp%3A%2F%2Ftracker.openbittorrent.com%3A80&amp;tr=udp%3A%2F%2Fopen.demonii.com%3A1337&amp;tr=udp%3A%2F%2Ftracker.coppersurfer.tk%3A6969&amp;tr=udp%3A%2F%2Fexodus.desync.com%3A6969","seeders":1,"leechers":0,"uploader":"canc232","files":1,"time":1396897742,"description":"Cosmos A Space Time Odyssey S01E05 HDTV x264 AAC E-Subs [GWC]\n\n\nSUMMARY :\nA documentary series that explores how we discovered the laws of nature and found our coordinates in space and time. \n\n\nSCREENS : &lt;a href=&quot;\nhttp://i.imgur.com/qWQQOyz.jpg&quot; rel=&quot;nofollow&quot; target=&quot;_NEW&quot;&gt;\nhttp://i.imgur.com/qWQQOyz.jpg&lt;/a&gt; &lt;a href=&quot;\nhttp://i.imgur.com/vmSgQni.jpg&quot; rel=&quot;nofollow&quot; target=&quot;_NEW&quot;&gt;\nhttp://i.imgur.com/vmSgQni.jpg&lt;/a&gt; &lt;a href=&quot;\nhttp://i.imgur.com/MlLrqtS.jpg&quot; rel=&quot;nofollow&quot; target=&quot;_NEW&quot;&gt;\nhttp://i.imgur.com/MlLrqtS.jpg&lt;/a&gt;\n\n\nMEDIA INFO :\nGeneral \nFormat : MPEG-4 \nFormat profile : Base Media \nFile size : 154 MiB \nDuration : 43mn 8s \nOverall bit rate : 498 Kbps \n\nVideo \nFormat : AVC \nFormat profile : &lt;a class=&quot;__cf_email__&quot; href=&quot;/cdn-cgi/l/email-protection&quot; data-cfemail=&quot;7038191718303c435e40&quot;&gt;[email&amp;#160;protected]&lt;/a&gt;&lt;script cf-hash='f9e31' type=&quot;text/javascript&quot;&gt;\n/* &lt;![CDATA[ */!function(){try{var t=&quot;currentScript&quot;in document?document.currentScript:function(){for(var t=document.getElementsByTagName(&quot;script&quot;),e=t.length;e--;)if(t[e].getAttribute(&quot;cf-hash&quot;))return t[e]}();if(t&amp;&amp;t.previousSibling){var e,r,n,i,c=t.previousSibling,a=c.getAttribute(&quot;data-cfemail&quot;);if(a){for(e=&quot;&quot;,r=parseInt(a.substr(0,2),16),n=2;a.length-n;n+=2)i=parseInt(a.substr(n,2),16)^r,e+=String.fromCharCode(i);e=document.createTextNode(e),c.parentNode.replaceChild(e,c)}}}catch(u){}}();/* ]]&gt; */&lt;/script&gt; \nFormat settings, CABAC : Yes \nFormat settings, ReFrames : 4 frames \nDuration : 43mn 8s \nBit rate : 434 Kbps \nMaximum bit rate : 2 471 Kbps \nWidth : 720 pixels \nHeight : 404 pixels \nDisplay aspect ratio : 16:9 \nFrame rate : 23.976 fps \nStream size : 134 MiB (87%) \nTitle : Cosmos A Space Time Odyssey S01E05 HDTV x264 AAC E-Subs [GWC] \nWriting library : x264 core \n\nAudio \nFormat : AAC \nFormat profile : HE-AAC / LC \nDuration : 43mn 8s \nBit rate mode : Variable \nChannel(s) : 2 channels \nSampling rate : 48.0 KHz / 24.0 KHz \nStream size : 18.5 MiB (12%) \nLanguage : English \n\nText \nFormat : Timed Text \nTitle : English Subtitle by n17t01 \nLanguage : English ","torrent":{"xt":"urn:btih:d18ff06b0bc5771c7e3f53f78a7c37b5cf773db7","amp;dn":"Cosmos+A+Space+Time+Odyssey+S01E05+HDTV+x264+AAC+E-Subs+%5BGWC%5D.mp","amp;tr":["udp%3A%2F%2Ftracker.openbittorrent.com%3A80","udp%3A%2F%2Fopen.demonii.com%3A1337","udp%3A%2F%2Ftracker.coppersurfer.tk%3A6969","udp%3A%2F%2Fexodus.desync.com%3A6969"],"infoHash":"d18ff06b0bc5771c7e3f53f78a7c37b5cf773db7","infoHashBuffer":{"type":"Buffer","data":[209,143,240,107,11,197,119,28,126,63,83,247,138,124,55,181,207,119,61,183]},"announce":[],"urlList":[]}}